<svg width="15" height="15" viewBox="0 0 15 15" fill="none" xmlns="http://www.w3.org/2000/svg">
<mask id="mask0_375_47186" style="mask-type:luminance" maskUnits="userSpaceOnUse" x="0" y="0" width="15" height="15">
<path d="M0 0H15V15H0V0Z" fill="white"/>
</mask>
<g mask="url(#mask0_375_47186)">
<path d="M8.11259 2.99681L7.50096 0.0893555L6.88934 2.99681C6.68815 3.95322 6.21307 4.83044 5.522 5.52151C4.83092 6.21259 3.9537 6.68766 2.9973 6.88885L0.0898438 7.50047L2.9973 8.1121C3.95369 8.31329 4.83092 8.78841 5.522 9.47947C6.21307 10.1705 6.68815 11.0477 6.88934 12.0042L7.50096 14.9116L8.11259 12.0042C8.31377 11.0477 8.78884 10.1705 9.4799 9.47947C10.171 8.78841 11.0482 8.31329 12.0046 8.1121L14.9121 7.50047L12.0046 6.88885C11.0482 6.68766 10.171 6.21259 9.4799 5.52151C8.78884 4.83044 8.31377 3.95322 8.11259 2.99681Z" fill="white"/>
</g>
</svg>
