<svg width="16" height="26" viewBox="0 0 16 26" fill="none" xmlns="http://www.w3.org/2000/svg">
<path d="M10.816 0.0812372C11.01 0.229202 11.1797 0.411217 11.2883 0.635661C11.3252 1.1489 11.251 1.62505 11.1436 2.12398C11.1279 2.19909 11.1124 2.27421 11.0969 2.34934C11.055 2.55144 11.0123 2.75334 10.9694 2.9552C10.9242 3.16832 10.8799 3.38162 10.8355 3.5949C10.7512 3.99916 10.6662 4.40326 10.5809 4.8073C10.4847 5.26285 10.3894 5.71858 10.2941 6.17433C10.1004 7.10124 9.90557 8.02791 9.71026 8.95448C9.64757 9.25192 9.58497 9.54938 9.52237 9.84683C9.50281 9.93976 9.48325 10.0327 9.46369 10.1256C9.45037 10.1889 9.43704 10.2523 9.42331 10.3175C9.46437 10.3177 9.46437 10.3177 9.50626 10.3179C10.1741 10.3209 10.8418 10.3247 11.5096 10.3294C11.8326 10.3317 12.1555 10.3337 12.4785 10.335C12.7903 10.3364 13.1022 10.3384 13.414 10.341C13.5328 10.3418 13.6516 10.3424 13.7704 10.3427C13.9372 10.3432 14.104 10.3446 14.2708 10.3463C14.3195 10.3462 14.3682 10.3461 14.4184 10.346C14.8887 10.3525 15.2798 10.4395 15.6227 10.7836C15.8984 11.0881 15.9743 11.3766 16 11.7875C15.9752 12.3183 15.6251 12.7365 15.3208 13.1372C15.1424 13.3725 14.9723 13.6134 14.8037 13.8563C14.601 14.1479 14.3963 14.4377 14.1871 14.7244C13.885 15.1383 13.5874 15.5555 13.2901 15.9731C13.2031 16.0953 13.1159 16.2173 13.0286 16.3393C12.747 16.733 12.4669 17.1277 12.1902 17.525C11.968 17.8439 11.7423 18.1597 11.5134 18.4734C11.2356 18.8543 10.9624 19.2386 10.6889 19.6228C10.6019 19.745 10.5146 19.867 10.4273 19.989C10.1458 20.3827 9.86567 20.7773 9.58896 21.1747C9.36679 21.4936 9.14109 21.8094 8.91214 22.1231C8.63431 22.5041 8.361 22.8885 8.08747 23.2727C7.91561 23.5141 7.74346 23.7552 7.57133 23.9964C7.42372 24.2032 7.27625 24.4101 7.12903 24.6173C7.08352 24.6812 7.08352 24.6812 7.0371 24.7465C6.97979 24.827 6.92252 24.9076 6.86532 24.9882C6.72639 25.1834 6.58605 25.3774 6.44363 25.5699C6.41647 25.6067 6.3893 25.6434 6.36132 25.6813C6.19683 25.8823 6.04961 25.9675 5.7964 25.9978C5.46733 26.0087 5.23132 25.9868 4.97584 25.7574C4.75347 25.5244 4.68868 25.2884 4.66258 24.967C4.67671 24.7747 4.71521 24.5917 4.75724 24.404C4.77418 24.3228 4.77418 24.3228 4.79147 24.2398C4.82915 24.0602 4.86818 23.8808 4.90721 23.7015C4.93433 23.5733 4.96136 23.4451 4.98829 23.3169C5.03826 23.0793 5.08859 22.8418 5.13935 22.6044C5.23635 22.1508 5.33104 21.6967 5.42475 21.2424C5.43922 21.1722 5.4537 21.1021 5.46817 21.032C5.48994 20.9264 5.51172 20.8209 5.53348 20.7153C5.61339 20.3279 5.69385 19.9406 5.77435 19.5533C5.78896 19.483 5.80357 19.4127 5.81818 19.3423C5.84017 19.2365 5.86216 19.1307 5.88415 19.0249C5.96005 18.6596 6.03589 18.2944 6.11172 17.9291C6.26664 17.183 6.42164 16.4368 6.57669 15.6906C6.53563 15.6905 6.53563 15.6905 6.49374 15.6903C5.82595 15.6873 5.15816 15.6834 4.49038 15.6787C4.16743 15.6764 3.84449 15.6744 3.52154 15.6731C3.20967 15.6718 2.89782 15.6697 2.58595 15.6672C2.46718 15.6663 2.34841 15.6657 2.22964 15.6654C2.06282 15.6649 1.89603 15.6635 1.72922 15.6619C1.6805 15.6619 1.63179 15.662 1.58159 15.6621C1.11131 15.6556 0.720172 15.5687 0.377301 15.2245C0.101578 14.92 0.0257366 14.6316 0 14.2206C0.024826 13.6899 0.374867 13.2716 0.679184 12.8709C0.857647 12.6356 1.02773 12.3948 1.19632 12.1518C1.399 11.8602 1.60366 11.5704 1.81288 11.2838C2.11502 10.8698 2.41275 10.4525 2.71007 10.0348C2.8251 9.87328 2.94026 9.71186 3.05544 9.55045C3.11259 9.47037 3.16973 9.39027 3.22686 9.31017C3.3705 9.10878 3.51424 8.90746 3.65817 8.70629C3.93984 8.31239 4.22008 7.91756 4.49693 7.52002C4.7191 7.20113 4.9448 6.88532 5.17374 6.57159C5.45158 6.19063 5.72489 5.80626 5.99842 5.422C6.11344 5.26047 6.2286 5.09905 6.34379 4.93764C6.40094 4.85756 6.45808 4.77746 6.51521 4.69736C6.65884 4.49597 6.80258 4.29466 6.94651 4.09349C7.22818 3.69958 7.50842 3.30475 7.78528 2.90722C8.00719 2.58869 8.23254 2.27318 8.46133 1.95989C8.68669 1.65109 8.90859 1.3397 9.12968 1.02763C9.27036 0.829645 9.41237 0.632773 9.55675 0.437653C9.58386 0.400963 9.61097 0.364273 9.6389 0.326471C9.94131 -0.0427942 10.3863 -0.058467 10.816 0.0812372ZM10.3067 0.939802C10.2389 1.01555 10.2389 1.01555 10.171 1.11662C10.1439 1.15511 10.1167 1.1936 10.0888 1.23325C10.0448 1.29657 10.0448 1.29657 10 1.36116C9.93738 1.45021 9.87475 1.53925 9.81212 1.62828C9.78007 1.67406 9.74803 1.71984 9.71501 1.76701C9.57369 1.96839 9.43061 2.16842 9.28752 2.36846C9.28371 2.3738 9.27989 2.37914 9.27607 2.38447C9.2188 2.46472 9.16154 2.54498 9.10429 2.62525C2.57669 11.7748 2.57669 11.7748 2.49074 11.8953C2.43367 11.9753 2.37661 12.0553 2.31956 12.1353C2.17363 12.34 2.02749 12.5445 1.88094 12.7486C1.62225 13.1094 1.36366 13.4702 1.1135 13.8373C1.07927 13.8874 1.04504 13.9375 1.00978 13.9892C0.939955 14.1067 0.897642 14.1859 0.883435 14.322C0.962078 14.5478 0.962079 14.5478 1.1429 14.6851C1.28153 14.7293 1.39091 14.7404 1.53564 14.7406C1.58697 14.741 1.6383 14.7413 1.69119 14.7417C1.74698 14.7415 1.80278 14.7414 1.86026 14.7413C1.91942 14.7415 1.97858 14.7418 2.03953 14.7421C2.16789 14.7426 2.29624 14.7429 2.4246 14.743C2.62753 14.7431 2.83045 14.744 3.03338 14.7451C3.53724 14.7475 4.0411 14.7491 4.54497 14.7502C4.93691 14.751 5.32885 14.7522 5.72078 14.7544C5.92257 14.7555 6.12433 14.7559 6.32612 14.7558C6.48091 14.7559 6.63569 14.757 6.79048 14.7579C6.87446 14.7576 6.87447 14.7576 6.96015 14.7572C7.01121 14.7577 7.06226 14.7582 7.11486 14.7587C7.15929 14.7588 7.20371 14.7589 7.24948 14.759C7.38461 14.7821 7.42612 14.8202 7.5092 14.9303C7.70375 15.3322 7.41818 16.0685 7.32792 16.4954C7.30903 16.586 7.29016 16.6765 7.27133 16.7671C7.23091 16.9611 7.1903 17.1551 7.14953 17.349C7.08507 17.6557 7.02108 17.9624 6.95716 18.2692C6.83305 18.8646 6.70847 19.4599 6.58382 20.0551C6.42495 20.8139 6.26625 21.5728 6.10805 22.3317C6.04447 22.6367 5.98062 22.9416 5.91658 23.2465C5.87685 23.4359 5.83733 23.6254 5.79786 23.8148C5.77951 23.9027 5.76107 23.9905 5.74254 24.0783C5.71727 24.1981 5.69231 24.318 5.66743 24.4379C5.66001 24.4727 5.6526 24.5075 5.64496 24.5433C5.60839 24.7213 5.58712 24.8864 5.59509 25.0683C5.78587 25.0027 5.84577 24.8845 5.95399 24.7198C5.99794 24.6546 6.04198 24.5895 6.08608 24.5244C6.10975 24.4894 6.13342 24.4543 6.15781 24.4182C6.28322 24.2347 6.41256 24.0542 6.54193 23.8736C6.54943 23.8632 6.55692 23.8527 6.56442 23.8423C6.59348 23.8016 6.62254 23.761 6.65248 23.7191C6.71203 23.6359 6.7716 23.5526 6.83119 23.4693C6.96451 23.283 7.09756 23.0964 7.2306 22.9099C7.23119 22.909 7.23178 22.9082 7.23236 22.9074C7.24284 22.8927 7.25332 22.878 7.2638 22.8633C7.32106 22.7831 7.37832 22.7028 7.43558 22.6225C7.46393 22.5828 7.49227 22.5431 7.52147 22.5021C13.2761 14.4361 13.2761 14.4361 13.362 14.3157C13.4192 14.2355 13.4764 14.1553 13.5335 14.0751C13.6776 13.873 13.822 13.6711 13.9666 13.4694C14.2513 13.0723 14.5345 12.6741 14.8129 12.2722C14.8379 12.2365 14.8629 12.2009 14.8887 12.1641C14.923 12.1142 14.923 12.1142 14.958 12.0633C14.9781 12.0344 14.9981 12.0055 15.0188 11.9757C15.0735 11.8781 15.1004 11.7977 15.1166 11.6861C15.0263 11.4737 14.9218 11.3839 14.7239 11.2806C14.5979 11.2581 14.5979 11.2581 14.4644 11.2614C14.413 11.261 14.3617 11.2606 14.3088 11.2602C14.2251 11.2606 14.2251 11.2606 14.1397 11.2611C14.051 11.2607 14.051 11.2607 13.9605 11.2603C13.8321 11.2598 13.7038 11.2596 13.5754 11.2598C13.3725 11.2601 13.1695 11.2593 12.9666 11.2583C12.4994 11.2563 12.0321 11.2557 11.5649 11.2551C11.1363 11.2546 10.7078 11.2537 10.2792 11.2517C10.0774 11.2507 9.87567 11.2505 9.67388 11.2509C9.51909 11.251 9.36431 11.2501 9.20952 11.2494C9.15353 11.2497 9.09754 11.25 9.03985 11.2504C8.96327 11.2497 8.96326 11.2497 8.88513 11.2491C8.84071 11.2491 8.79629 11.249 8.75051 11.249C8.61532 11.2261 8.57389 11.188 8.4908 11.0778C8.31106 10.7066 8.55926 10.0458 8.64037 9.6615C8.65589 9.58682 8.67137 9.51213 8.68683 9.43743C8.72865 9.23581 8.77085 9.03428 8.81313 8.83276C8.85328 8.64104 8.89314 8.44925 8.933 8.25746C8.93738 8.23638 8.94176 8.2153 8.94614 8.19422C9.03019 7.79015 9.11455 7.38615 9.19904 6.98218C9.29403 6.52788 9.38868 6.0735 9.48329 5.61912C9.60746 5.02278 9.7317 4.42645 9.85626 3.83019C9.89619 3.6391 9.93608 3.448 9.97589 3.25688C10.0427 2.93632 10.1096 2.61579 10.1777 2.29551C10.1991 2.19488 10.2204 2.09422 10.2416 1.99356C10.2674 1.87137 10.2934 1.74922 10.3196 1.62712C10.3309 1.57338 10.3422 1.51964 10.3539 1.46426C10.3688 1.3945 10.3688 1.3945 10.3839 1.32333C10.405 1.19293 10.4087 1.07173 10.4049 0.939802C10.3725 0.939802 10.3401 0.939802 10.3067 0.939802Z" fill="#E5F28D"/>
<path d="M10.3067 0.939802C10.2389 1.01555 10.2389 1.01555 10.171 1.11662L10.0888 1.23325L10 1.36116L9.81212 1.62828L9.71501 1.76701C9.57369 1.96839 9.43061 2.16842 9.28752 2.36846L9.27607 2.38447L9.10429 2.62525L2.49074 11.8953L2.31956 12.1353C2.17363 12.34 2.02749 12.5445 1.88094 12.7486C1.62225 13.1094 1.36366 13.4702 1.1135 13.8373L1.00978 13.9892C0.939955 14.1067 0.897642 14.1859 0.883435 14.322C0.962078 14.5478 0.962079 14.5478 1.1429 14.6851C1.28153 14.7293 1.39091 14.7404 1.53564 14.7406L1.69119 14.7417L1.86026 14.7413L2.03953 14.7421C2.16789 14.7426 2.29624 14.7429 2.4246 14.743C2.62753 14.7431 2.83045 14.744 3.03338 14.7451C3.53724 14.7475 4.0411 14.7491 4.54497 14.7502C4.93691 14.751 5.32885 14.7522 5.72078 14.7544C5.92257 14.7555 6.12433 14.7559 6.32612 14.7558C6.48091 14.7559 6.63569 14.757 6.79048 14.7579L6.96015 14.7572L7.11486 14.7587L7.24948 14.759C7.38461 14.7821 7.42612 14.8202 7.5092 14.9303C7.70375 15.3322 7.41818 16.0685 7.32792 16.4954L7.27133 16.7671C7.23091 16.9611 7.1903 17.1551 7.14953 17.349C7.08507 17.6557 7.02108 17.9624 6.95716 18.2692C6.83305 18.8646 6.70847 19.4599 6.58382 20.0551C6.42495 20.8139 6.26625 21.5728 6.10805 22.3317C6.04447 22.6367 5.98062 22.9416 5.91658 23.2465C5.87685 23.4359 5.83733 23.6254 5.79786 23.8148C5.77951 23.9027 5.76107 23.9905 5.74254 24.0783C5.71727 24.1981 5.69231 24.318 5.66743 24.4379L5.64496 24.5433C5.60839 24.7213 5.58712 24.8864 5.59509 25.0683C5.78587 25.0027 5.84577 24.8845 5.95399 24.7198C5.99794 24.6546 6.04198 24.5895 6.08608 24.5244L6.15781 24.4182C6.28322 24.2347 6.41256 24.0542 6.54193 23.8736L6.56442 23.8423L6.65248 23.7191L6.83119 23.4693C6.96451 23.283 7.09756 23.0964 7.2306 22.9099L7.23236 22.9074L7.2638 22.8633L7.43558 22.6225L7.52147 22.5021L13.362 14.3157L13.5335 14.0751C13.6776 13.873 13.822 13.6711 13.9666 13.4694C14.2513 13.0723 14.5345 12.6741 14.8129 12.2722L14.8887 12.1641L14.958 12.0633L15.0188 11.9757C15.0735 11.8781 15.1004 11.7977 15.1166 11.6861C15.0263 11.4737 14.9218 11.3839 14.7239 11.2806C14.5979 11.2581 14.5979 11.2581 14.4644 11.2614L14.3088 11.2602L14.1397 11.2611L13.9605 11.2603C13.8321 11.2598 13.7038 11.2596 13.5754 11.2598C13.3725 11.2601 13.1695 11.2593 12.9666 11.2583C12.4994 11.2563 12.0321 11.2557 11.5649 11.2551C11.1363 11.2546 10.7078 11.2537 10.2792 11.2517C10.0774 11.2507 9.87567 11.2505 9.67388 11.2509C9.51909 11.251 9.36431 11.2501 9.20952 11.2494L9.03985 11.2504L8.88513 11.2491L8.75051 11.249C8.61532 11.2261 8.57389 11.188 8.4908 11.0778C8.31106 10.7066 8.55926 10.0458 8.64037 9.6615L8.68683 9.43743C8.72865 9.23581 8.77085 9.03428 8.81313 8.83276C8.85328 8.64104 8.89314 8.44925 8.933 8.25746L8.94614 8.19422C9.03019 7.79015 9.11455 7.38615 9.19904 6.98218C9.29403 6.52788 9.38868 6.0735 9.48329 5.61912C9.60746 5.02278 9.7317 4.42645 9.85626 3.83019C9.89619 3.6391 9.93608 3.448 9.97589 3.25688C10.0427 2.93632 10.1096 2.61579 10.1777 2.29551C10.1991 2.19488 10.2204 2.09422 10.2416 1.99356C10.2674 1.87137 10.2934 1.74922 10.3196 1.62712L10.3539 1.46426L10.3839 1.32333C10.405 1.19293 10.4087 1.07173 10.4049 0.939802H10.3067Z" fill="#E5F28D"/>
</svg>
