<svg width="25" height="25" viewBox="0 0 25 25" fill="none" xmlns="http://www.w3.org/2000/svg">
<path fill-rule="evenodd" clip-rule="evenodd" d="M21.9456 0C23.6314 0 25 1.36865 25 3.05439V21.9456C25 23.6313 23.6313 25 21.9456 25H3.05439C1.36865 25 0 23.6313 0 21.9456V3.05439C0 1.36865 1.3686 0 3.05439 0L21.9456 0ZM7.83501 20.6679V9.64653H4.17095V20.6679H7.83501ZM21.0449 20.6679V14.3476C21.0449 10.9622 19.2374 9.38735 16.8271 9.38735C14.8835 9.38735 14.0129 10.4563 13.5255 11.207V9.64653H9.86235C9.91094 10.6808 9.86235 20.6679 9.86235 20.6679H13.5254V14.5128C13.5254 14.1833 13.5492 13.854 13.6462 13.6185C13.9106 12.9605 14.5138 12.279 15.5258 12.279C16.8508 12.279 17.3816 13.29 17.3816 14.771V20.6679H21.0449ZM6.02773 4.33213C4.77412 4.33213 3.95508 5.1563 3.95508 6.23652C3.95508 7.29404 4.74922 8.14092 5.97925 8.14092H6.00288C7.28047 8.14092 8.07573 7.29404 8.07573 6.23652C8.05205 5.15781 7.28271 4.33447 6.02773 4.33213Z" fill="#BF6212"/>
</svg>
